<svg viewBox="46.596762075134166 34.641996 210.69552772808584 184.30174" preserveAspectRatio="xMidYMid meet" version="1.0" xmlns="http://www.w3.org/2000/svg" style="max-height: 500px" width="210.69552772808584" height="184.30174">
<metadata>
Created by potrace 1.10, written by Peter Selinger 2001-2011
</metadata>
<g stroke="none" fill="#d4af37" transform="translate(0.000000,246.000000) scale(0.100000,-0.100000)">
<path stroke-width="40" stroke="#d4af37" d="M1453 2060 c-18 -4 -48 -19 -67 -33 -37 -29 -81 -109 -72 -132 10 -26 24 -16 31 22 9 49 71 109 121 119 76 14 155 -34 174 -105 17 -63 -3 -107 -80 -182 -63 -60 -93 -110 -76 -126 3 -4 12 -1 18 5 15 15 48 16 48 2 0 -5 -4 -10 -10 -10 -5 0 -19 -9 -30 -20 -16 -16 -18 -25 -10 -39 8 -16 3 -24 -33 -51 -60 -45 -232 -127 -448 -213 -259 -105 -361 -159 -443 -236 -101 -95 -81 -199 42 -216 97 -13 273 31 392 98 56 32 140 103 140 118 0 16 -17 10 -46 -17 -110 -102 -331 -183 -466 -171 -72 6 -98 26 -98 76 0 30 9 43 58 91 79 76 174 127 440 235 255 104 374 161 443 211 42 30 48 32 60 18 30 -36 248 -146 374 -189 18 -6 17 -8 -10 -19 -130 -56 -245 -294 -310 -646 -35 -184 -67 -312 -76 -303 -4 4 -21 60 -38 123 -17 63 -44 160 -62 215 -17 55 -33 108 -36 118 -4 12 6 31 30 55 53 56 71 98 71 168 -1 74 -36 144 -82 163 -83 35 -142 -1 -142 -85 0 -46 35 -163 69 -235 l19 -39 -45 -20 c-25 -11 -63 -25 -85 -30 -45 -13 -193 -12 -283 1 -33 5 -103 10 -156 11 -87 2 -101 -1 -153 -26 -31 -15 -56 -32 -54 -38 4 -12 11 -10 68 16 57 25 154 29 280 11 176 -25 357 -7 413 43 9 8 19 13 20 11 5 -5 82 -269 97 -329 28 -113 52 -170 70 -170 19 0 28 19 70 151 51 160 172 298 306 349 89 33 101 34 329 35 239 1 265 6 289 53 60 116 -131 273 -489 402 -184 66 -364 151 -445 209 -19 14 -37 26 -39 28 -2 1 6 14 18 29 37 47 18 109 -31 97 -20 -6 -20 -5 -6 15 8 12 36 38 61 57 57 44 87 99 87 160 0 78 -50 144 -125 164 -44 12 -47 12 -92 1z m87 -481 c-7 -11 -14 -18 -17 -15 -8 8 5 36 17 36 7 0 7 -6 0 -21z m499 -313 c176 -64 341 -157 408 -229 46 -49 58 -77 49 -112 -11 -45 -36 -50 -261 -50 -233 0 -301 -11 -406 -67 -69 -36 -158 -125 -198 -198 -17 -30 -31 -50 -31 -44 0 21 60 262 86 346 33 104 94 231 136 282 33 41 112 96 136 96 8 0 44 -11 81 -24z m-649 -101 c53 -27 81 -116 61 -191 -10 -37 -67 -124 -81 -124 -4 0 -22 39 -40 88 -69 181 -43 280 60 227z"/>
</g>
</svg>