<svg xmlns="http://www.w3.org/2000/svg" width="400" height="68" version="1.0" viewBox="0 0 300 51"><g fill="#d4af37"><path d="M117.4 2.4c-6.7 2.9-9.5 12.2-5.8 18.5 2 3.4 3.9 4.6 12.9 8.3S136 35.3 136 40c0 6.3-6.1 9.9-13.2 7.9-4.3-1.1-9.1-6.2-10.8-11.3-1.9-6-3-4.1-2.9 5.1 0 8.2.1 8.7 1.6 6.6l1.5-2.2 4.1 2c5.3 2.8 14.3 2.9 18.8.3 9.7-5.7 10.3-18 1.1-23.2-2-1.1-6.4-3-9.6-4.3-3.3-1.2-7-3.2-8.3-4.5-5.1-5.1-1.2-13.4 6.3-13.4 5.3 0 9.9 3.2 12.1 8.5 1 2.5 2.1 4.5 2.6 4.5.4 0 .7-3.4.7-7.7 0-7.4 0-7.6-1.9-5.9-1.8 1.6-2.2 1.6-5 .2-3.7-1.9-11.5-2-15.7-.2M1 2.5c0 .3 1.1 1 2.3 1.4 2.5 1 3.2 2.3 9 16.1 2 4.7 5.4 13 7.7 18.5s4.6 10.4 5.1 11c1.3 1.4 3.1-1.1 5.9-8 12.3-30.7 14.7-36 16.8-37C51.6 2.8 50.2 2 43.5 2c-3.7 0-6.5.4-6.5 1 0 .5.6 1 1.4 1 .7 0 1.9.7 2.6 1.5 1.1 1.3.7 3-2 9.8-1.8 4.5-4.8 12-6.6 16.7-3 7.8-3.3 8.3-4.2 6-.5-1.4-3.5-8.5-6.6-15.8C18.5 14.8 16 8 16 6.9c0-1.2 1-2.3 2.5-2.9 1.4-.5 2.5-1.2 2.5-1.5S16.5 2 11 2 1 2.2 1 2.5M58.5 3c.3.5 1.2 1 2 1s1.7.5 2 1.1c.4.6.8 9.9.9 20.7.1 20.1-.3 22.2-4 22.2-.8 0-1.4.3-1.4.7 0 .6 18.1.7 37.1.3.4 0 1-2.1 1.3-4.8.4-2.6.9-5.5 1.2-6.5.9-3.1-1.4-1.8-3.3 2-3.1 5.9-5.9 7.4-14.2 7.5-3.9 0-7.5-.2-7.8-.6-.4-.4-.8-5.2-.9-10.7l-.1-10 5.6.3c5.3.3 5.7.5 7.3 3.8.9 1.9 1.8 3.3 1.8 3 .5-2.1.4-15-.1-15-.3 0-1.1 1.1-1.7 2.5-.6 1.3-2.2 2.7-3.5 3-3.7 1-9.2.2-9.1-1.3.1-.6.2-5.1.3-9.8l.1-8.6 7.4.4c8.2.4 10.3 1.6 13.1 7.4 2.3 5 3.5 3.3 2-3-.7-3-1-5.7-.7-6S86.1 2 76.1 2c-11.9 0-18 .3-17.6 1M154 2.8c0 .6 1 1.2 2.3 1.4l2.2.3v21c0 20.8 0 21-2.2 22-1.3.5-2.3 1.2-2.3 1.5 0 .7 18 .3 18.7-.4.4-.3-.1-.6-1-.6-3.2 0-4.7-2.9-4.7-9.5v-6.3l5.6-.1c6.6 0 13.8-3.2 16.8-7.3 2.7-3.8 2.7-11.8 0-15.4-4.7-6.3-6.4-6.9-21.5-7.2-9.1-.3-13.9 0-13.9.6m25.2 4.1c2.7 2.4 3.2 3.6 3.6 8.8.3 4.3 0 6.9-1.2 9.1-2 3.9-3.8 4.9-9.6 5.3l-4.5.4-.3-13.3-.3-13.2h4.6c3.5 0 5.1.6 7.7 2.9M202 3c0 .5.9 1 1.9 1 1.1 0 2.3.5 2.7 1.1 1.1 1.9.4 40.2-.8 41.6-.6.7-1.7 1.3-2.4 1.3-.8 0-1.4.3-1.4.7 0 .5 6.6.7 14.7.6 8.2-.2 16.7-.3 18.9-.3h4.1l.7-5c.4-2.8.9-5.7 1.2-6.5 1.3-3.2-1.5-1.3-3.3 2.2-2.9 5.9-5.8 7.4-14.2 7.4-5.1 0-7.7-.4-8.2-1.3-.5-.7-.9-5.5-.9-10.6v-9.3l5.7.3c5.3.3 5.9.6 7.3 3.3l1.5 3 .3-3.8c.2-2 .2-5.4 0-7.5-.4-3.7-.4-3.7-1.5-1.1-1.4 3.2-3.1 3.9-8.9 3.9H215V4h5.9c8.5 0 11.7 1.4 14.7 6.6 1.4 2.4 2.8 4.4 3.1 4.4s.2-2.1-.1-4.8c-1.3-8.9.4-8.2-19.2-8.2-10.9 0-17.4.4-17.4 1M252 2.9c0 .5 1 1.1 2.3 1.3l2.2.3v41.9l-2.5 1.3c-1.4.7-2.2 1.3-1.7 1.4 3.6.4 17.9 0 18.4-.5.3-.3 0-.6-.8-.6-3.5-.1-4.1-1.7-4.3-11l-.2-9.2 3.8.5c5.2.7 6.3 1.8 11 11.1 2.2 4.5 4.2 8.3 4.5 8.6.6.6 12.7 1.8 13.6 1.3.5-.3-.7-1.2-2.5-2.1-2.3-1.2-4.7-4.1-8.1-10-4-6.7-5.4-8.4-7.8-8.9-3.5-.7-3.9-2.3-.5-2.3 3.3 0 8.2-4.3 9.6-8.5 1-3 .9-4.1-.7-7.2-3.4-6.9-5.6-7.8-21.9-8.1-9.2-.2-14.4 0-14.4.7m24 2.4c3.7 1.8 5.6 8 4.1 13.3-1.3 5-4.2 7.1-10 7.5l-4.2.3-.3-11.2-.3-11.2h4.1c2.3 0 5.2.6 6.6 1.3"/></g></svg>