<svg xmlns="http://www.w3.org/2000/svg" width="210.696" height="184.302" style="max-height:500px" version="1.0" viewBox="46.597 34.642 210.696 184.302"><path stroke="#000" stroke-width="4" d="M145.3 40c-1.8.4-4.8 1.9-6.7 3.3-3.7 2.9-8.1 10.9-7.2 13.2 1 2.6 2.4 1.6 3.1-2.2.9-4.9 7.1-10.9 12.1-11.9 7.6-1.4 15.5 3.4 17.4 10.5 1.7 6.3-.3 10.7-8 18.2-6.3 6-9.3 11-7.6 12.6.3.4 1.2.1 1.8-.5 1.5-1.5 4.8-1.6 4.8-.2 0 .5-.4 1-1 1-.5 0-1.9.9-3 2-1.6 1.6-1.8 2.5-1 3.9.8 1.6.3 2.4-3.3 5.1-6 4.5-23.2 12.7-44.8 21.3-25.9 10.5-36.1 15.9-44.3 23.6-10.1 9.5-8.1 19.9 4.2 21.6 9.7 1.3 27.3-3.1 39.2-9.8 5.6-3.2 14-10.3 14-11.8 0-1.6-1.7-1-4.6 1.7-11 10.2-33.1 18.3-46.6 17.1-7.2-.6-9.8-2.6-9.8-7.6 0-3 .9-4.3 5.8-9.1 7.9-7.6 17.4-12.7 44-23.5 25.5-10.4 37.4-16.1 44.3-21.1 4.2-3 4.8-3.2 6-1.8 3 3.6 24.8 14.6 37.4 18.9 1.8.6 1.7.8-1 1.9-13 5.6-24.5 29.4-31 64.6-3.5 18.4-6.7 31.2-7.6 30.3-.4-.4-2.1-6-3.8-12.3s-4.4-16-6.2-21.5c-1.7-5.5-3.3-10.8-3.6-11.8-.4-1.2.6-3.1 3-5.5 5.3-5.6 7.1-9.8 7.1-16.8-.1-7.4-3.6-14.4-8.2-16.3-8.3-3.5-14.2.1-14.2 8.5 0 4.6 3.5 16.3 6.9 23.5l1.9 3.9-4.5 2c-2.5 1.1-6.3 2.5-8.5 3-4.5 1.3-19.3 1.2-28.3-.1-3.3-.5-10.3-1-15.6-1.1-8.7-.2-10.1.1-15.3 2.6-3.1 1.5-5.6 3.2-5.4 3.8.4 1.2 1.1 1 6.8-1.6 5.7-2.5 15.4-2.9 28-1.1 17.6 2.5 35.7.7 41.3-4.3.9-.8 1.9-1.3 2-1.1.5.5 8.2 26.9 9.7 32.9 2.8 11.3 5.2 17 7 17 1.9 0 2.8-1.9 7-15.1 5.1-16 17.2-29.8 30.6-34.9 8.9-3.3 10.1-3.4 32.9-3.5 23.9-.1 26.5-.6 28.9-5.3 6-11.6-13.1-27.3-48.9-40.2-18.4-6.6-36.4-15.1-44.5-20.9-1.9-1.4-3.7-2.6-3.9-2.8-.2-.1.6-1.4 1.8-2.9 3.7-4.7 1.8-10.9-3.1-9.7-2 .6-2 .5-.6-1.5.8-1.2 3.6-3.8 6.1-5.7 5.7-4.4 8.7-9.9 8.7-16 0-7.8-5-14.4-12.5-16.4-4.4-1.2-4.7-1.2-9.2-.1zm8.7 48.1c-.7 1.1-1.4 1.8-1.7 1.5-.8-.8.5-3.6 1.7-3.6.7 0 .7.6 0 2.1zm49.9 31.3c17.6 6.4 34.1 15.7 40.8 22.9 4.6 4.9 5.8 7.7 4.9 11.2-1.1 4.5-3.6 5-26.1 5-23.3 0-30.1 1.1-40.6 6.7-6.9 3.6-15.8 12.5-19.8 19.8-1.7 3-3.1 5-3.1 4.4 0-2.1 6-26.2 8.6-34.6 3.3-10.4 9.4-23.1 13.6-28.2 3.3-4.1 11.2-9.6 13.6-9.6.8 0 4.4 1.1 8.1 2.4zM139 129.5c5.3 2.7 8.1 11.6 6.1 19.1-1 3.7-6.7 12.4-8.1 12.4-.4 0-2.2-3.9-4-8.8-6.9-18.1-4.3-28 6-22.7z"/></svg>